<svg width="77" height="229" viewBox="0 0 77 229" fill="none" xmlns="http://www.w3.org/2000/svg">
<path d="M49.8432 185.408V175.234C49.8432 162.518 49.4153 152.904 48.6131 146.393C47.8109 139.933 45.4043 133.931 41.5003 128.437C37.5428 122.944 31.1252 118.315 22.1941 114.551C32.6761 110.634 39.8959 104.683 43.8534 96.7985C47.8109 88.8634 49.8432 77.9271 49.8432 63.8372L49.8432 41.7103C49.8432 35.759 50.3245 31.2319 51.2336 28.1799C52.1428 25.0771 54.175 22.7372 57.2234 21.1604C60.2717 19.5835 65.1384 18.7697 71.7699 18.7697H76.5296L76.5296 -7.7113e-06H65.8336C52.5172 -7.7113e-06 42.7838 3.6115 36.6871 10.7837C30.537 17.9558 27.4886 30.2654 27.4886 47.7126L27.4886 64.9562C27.4886 78.6901 25.5099 88.6091 21.6058 94.713C17.6483 100.817 10.482 104.174 -2.85665e-06 104.785L-2.85665e-06 124.215C8.34284 124.673 14.493 126.708 18.3971 130.37C22.3011 133.982 24.8146 138.611 25.8842 144.257C26.9538 149.903 27.5421 157.126 27.5421 166.028L27.5421 177.371C27.5421 190.647 28.6117 200.871 30.7509 208.043C32.8901 215.215 37.0615 220.505 43.2117 223.913C49.3619 227.321 58.3464 229 70.112 229H76.583L76.583 210.332H73.909C67.438 210.332 62.4644 209.773 59.0417 208.653C55.619 207.534 53.2659 205.296 51.9289 201.888C50.5384 198.582 49.8432 193.088 49.8432 185.408Z" fill="#CC2C12"/>
</svg>
